# xmcd CD database file
#
# Track frame offsets:
#	150
#	41937
#	86880
#	119162
#	144870
#	182372
#	206525
#
# Disc length: 3141 seconds
#
# Revision: 0
# Processed by: cddbd v1.4PL0 Copyright (c) Steve Scherf et al.
# Submitted via: CDex 1.50beta9
#
DISCID=630c4307
DTITLE=Chris Hunter - I Want You
DYEAR=1991
DGENRE=Jazz
TTITLE0=Fever
TTITLE1=I Want You - She's So Heavy
TTITLE2=Willow Weep For Me
TTITLE3=Holiday For Strings
TTITLE4=Bachianas Brasilleras
TTITLE5=Modinha Brasillera
TTITLE6=Nefertiti
EXTD=YEAR: 1991
EXTT0=
EXTT1=
EXTT2=
EXTT3=
EXTT4=
EXTT5=
EXTT6=
PLAYORDER=
